mtllib I:\Games\- Extract\- Extracted\Yharnam\Bullet\bullet.mtl
g Model001_24_Mesh1_0_0_0_root_root
usemtl Model001_Material001
v 0.0138 -0.04716 0.07620001
vn 0.2691135 -0.9247464 -0.2691135
vt 0.8239 0.7414
v 0 -0.04716 0.0705
vn 0 -0.9247341 -0.380614
vt 0.8277 0.7155
v 0 -0.03606 0.05394
vn 0 -0.7092037 -0.7050036
vt 0.8671 0.7132
v -0.0138 -0.04716 0.07620001
vn -0.2691135 -0.9247464 -0.2691135
vt 0.8239 0.7414
v 0 -0.05106 0.09
vn 0 -1 0
vt 0.79 0.7302
v 0.0255 -0.03606 0.0645
vn 0.4985077 -0.709211 -0.4985077
vt 0.8488 0.7558
v -0.0255 -0.03606 0.0645
vn -0.4985077 -0.709211 -0.4985077
vt 0.8488 0.7558
v -0.0195 -0.04716 0.09
vn -0.380614 -0.9247341 0
vt 0.8102 0.7587
v 0.0195 -0.04716 0.09
vn 0.380614 -0.9247341 0
vt 0.8102 0.7587
v 0 -0.0195 0.04284
vn 0 -0.3845089 -0.9231213
vt 0.9053 0.7255
v -0.03606 -0.03606 0.09
vn -0.7050036 -0.7092037 0
vt 0.8249 0.7792
v -0.0138 -0.04716 0.1038
vn -0.2691135 -0.9247464 0.2691135
vt 0.7894 0.7661
v 0.0138 -0.04716 0.1038
vn 0.2691135 -0.9247464 0.2691135
vt 0.7894 0.7661
v 0.03606 -0.03606 0.09
vn 0.7050036 -0.7092037 0
vt 0.8249 0.7792
v -0.03336 -0.0195 0.05664
vn -0.6527408 -0.3845241 -0.6527408
vt 0.8677 0.7718
v -0.0255 -0.03606 0.1155
vn -0.4985077 -0.709211 0.4985077
vt 0.7949 0.7946
v 0 -0.04716 0.1095
vn 0 -0.9247341 0.380614
vt 0.7626 0.761
v 0.0255 -0.03606 0.1155
vn 0.4985077 -0.709211 0.4985077
vt 0.7949 0.7946
v -0.04716 -0.0195 0.09
vn -0.9231213 -0.3845089 0
vt 0.8378 0.7972
v 0 -0.03606 0.12606
vn 0 -0.7092037 0.7050036
vt 0.7505 0.7994
v -0.03336 -0.0195 0.12336
vn -0.6527408 -0.3845241 0.6527408
vt 0.8043 0.8175
v 0.04716 -0.0195 0.09
vn 0.9231213 -0.3845089 0
vt 0.8378 0.7972
v 0.03336 -0.0195 0.12336
vn 0.6527408 -0.3845241 0.6527408
vt 0.8043 0.8175
v 0 -0.0195 0.13716
vn 0 -0.3845089 0.9231213
vt 0.7505 0.8382
v -0.05106 0 0.09
vn -1 0 0
vt 0.8498 0.8138
v -0.03606 0 0.12606
vn -0.7071068 0 0.7071068
vt 0.8159 0.8381
v 0.05106 0 0.09
vn 1 0 0
vt 0.8498 0.8138
v 0.03606 0 0.12606
vn 0.7071068 0 0.7071068
vt 0.8159 0.8381
v -0.03606 0 0.05394
vn -0.7071068 0 -0.7071068
vt 0.8838 0.7893
v 0 0 0.14106
vn 0 0 1
vt 0.7677 0.8727
v -0.04716 0.0195 0.09
vn -0.9231213 0.3845089 0
vt 0.8616 0.8303
v 0.04716 0.0195 0.09
vn 0.9231213 0.3845089 0
vt 0.8616 0.8303
v -0.03336 0.0195 0.05664
vn -0.6527408 0.3845241 -0.6527408
vt 0.8953 0.8101
v 0.03336 0.0195 0.12336
vn 0.6527408 0.3845241 0.6527408
vt 0.8317 0.8556
v -0.03336 0.0195 0.12336
vn -0.6527408 0.3845241 0.6527408
vt 0.8317 0.8556
v 0 0.0195 0.13716
vn 0 0.3845089 0.9231213
vt 0.7949 0.9001
v -0.0255 0.03606 0.0645
vn -0.4985077 0.709211 -0.4985077
vt 0.9044 0.8332
v -0.03606 0.03606 0.09
vn -0.7050036 0.7092037 0
vt 0.8746 0.8484
v -0.0255 0.03606 0.1155
vn -0.4985077 0.709211 0.4985077
vt 0.8504 0.8719
v 0.0255 0.03606 0.1155
vn 0.4985077 0.709211 0.4985077
vt 0.8504 0.8719
v 0 0.03606 0.12606
vn 0 0.7092037 0.7050036
vt 0.8317 0.9125
v -0.0138 0.04716 0.07620001
vn -0.2691135 0.9247464 -0.2691135
vt 0.9101 0.8614
v -0.0195 0.04716 0.09
vn -0.380614 0.9247341 0
vt 0.8893 0.8689
v -0.0138 0.04716 0.1038
vn -0.2691135 0.9247464 0.2691135
vt 0.8756 0.8862
v 0 0.04716 0.1095
vn 0 0.9247341 0.380614
vt 0.872 0.9132
v 0.0138 0.04716 0.1038
vn 0.2691135 0.9247464 0.2691135
vt 0.8756 0.8862
v 0 0.05106 0.09
vn 0 1 0
vt 0.9099 0.897
v 0.0195 0.04716 0.09
vn 0.380614 0.9247341 0
vt 0.8893 0.8689
v 0 0.04716 0.0705
vn 0 0.9247341 -0.380614
vt 0.9359 0.8661
v 0.0138 0.04716 0.07620001
vn 0.2691135 0.9247464 -0.2691135
vt 0.9101 0.8614
v 0.03606 0.03606 0.09
vn 0.7050036 0.7092037 0
vt 0.8746 0.8484
v 0.0255 0.03606 0.0645
vn 0.4985077 0.709211 -0.4985077
vt 0.9044 0.8332
v 0 0.03606 0.05394
vn 0 0.7092037 -0.7050036
vt 0.9506 0.8294
v 0.03336 0.0195 0.05664
vn 0.6527408 0.3845241 -0.6527408
vt 0.8953 0.8101
v 0 0.0195 0.04284
vn 0 0.3845089 -0.9231213
vt 0.9511 0.7893
v 0.03606 0 0.05394
vn 0.7071068 0 -0.7071068
vt 0.8838 0.7893
v 0 0 0.03894001
vn 0 0 -1
vt 0.9333 0.7537
v 0.03336 -0.0195 0.05664
vn 0.6527408 -0.3845241 -0.6527408
vt 0.8677 0.7718
f -58/-58/-58 -57/-57/-57 -56/-56/-56
f -55/-55/-55 -56/-56/-56 -57/-57/-57
f -58/-58/-58 -54/-54/-54 -57/-57/-57
f -55/-55/-55 -57/-57/-57 -54/-54/-54
f -58/-58/-58 -56/-56/-56 -53/-53/-53
f -56/-56/-56 -55/-55/-55 -52/-52/-52
f -51/-51/-51 -52/-52/-52 -55/-55/-55
f -54/-54/-54 -51/-51/-51 -55/-55/-55
f -54/-54/-54 -58/-58/-58 -50/-50/-50
f -53/-53/-53 -50/-50/-50 -58/-58/-58
f -53/-53/-53 -56/-56/-56 -49/-49/-49
f -52/-52/-52 -49/-49/-49 -56/-56/-56
f -51/-51/-51 -48/-48/-48 -52/-52/-52
f -54/-54/-54 -47/-47/-47 -51/-51/-51
f -48/-48/-48 -51/-51/-51 -47/-47/-47
f -54/-54/-54 -50/-50/-50 -46/-46/-46
f -53/-53/-53 -45/-45/-45 -50/-50/-50
f -46/-46/-46 -50/-50/-50 -45/-45/-45
f -48/-48/-48 -44/-44/-44 -52/-52/-52
f -49/-49/-49 -52/-52/-52 -44/-44/-44
f -48/-48/-48 -47/-47/-47 -43/-43/-43
f -47/-47/-47 -54/-54/-54 -42/-42/-42
f -46/-46/-46 -42/-42/-42 -54/-54/-54
f -42/-42/-42 -43/-43/-43 -47/-47/-47
f -45/-45/-45 -41/-41/-41 -46/-46/-46
f -42/-42/-42 -46/-46/-46 -41/-41/-41
f -44/-44/-44 -48/-48/-48 -40/-40/-40
f -43/-43/-43 -40/-40/-40 -48/-48/-48
f -43/-43/-43 -42/-42/-42 -39/-39/-39
f -41/-41/-41 -39/-39/-39 -42/-42/-42
f -39/-39/-39 -38/-38/-38 -43/-43/-43
f -40/-40/-40 -43/-43/-43 -38/-38/-38
f -45/-45/-45 -37/-37/-37 -41/-41/-41
f -39/-39/-39 -41/-41/-41 -36/-36/-36
f -37/-37/-37 -36/-36/-36 -41/-41/-41
f -38/-38/-38 -39/-39/-39 -35/-35/-35
f -36/-36/-36 -35/-35/-35 -39/-39/-39
f -40/-40/-40 -38/-38/-38 -34/-34/-34
f -35/-35/-35 -33/-33/-33 -38/-38/-38
f -34/-34/-34 -38/-38/-38 -33/-33/-33
f -37/-37/-37 -32/-32/-32 -36/-36/-36
f -35/-35/-35 -36/-36/-36 -31/-31/-31
f -32/-32/-32 -31/-31/-31 -36/-36/-36
f -34/-34/-34 -30/-30/-30 -40/-40/-40
f -44/-44/-44 -40/-40/-40 -30/-30/-30
f -33/-33/-33 -35/-35/-35 -29/-29/-29
f -31/-31/-31 -29/-29/-29 -35/-35/-35
f -34/-34/-34 -33/-33/-33 -28/-28/-28
f -32/-32/-32 -27/-27/-27 -31/-31/-31
f -30/-30/-30 -34/-34/-34 -26/-26/-26
f -28/-28/-28 -26/-26/-26 -34/-34/-34
f -29/-29/-29 -31/-31/-31 -25/-25/-25
f -27/-27/-27 -25/-25/-25 -31/-31/-31
f -29/-29/-29 -24/-24/-24 -33/-33/-33
f -28/-28/-28 -33/-33/-33 -24/-24/-24
f -25/-25/-25 -23/-23/-23 -29/-29/-29
f -24/-24/-24 -29/-29/-29 -23/-23/-23
f -26/-26/-26 -28/-28/-28 -22/-22/-22
f -24/-24/-24 -21/-21/-21 -28/-28/-28
f -22/-22/-22 -28/-28/-28 -21/-21/-21
f -23/-23/-23 -20/-20/-20 -24/-24/-24
f -21/-21/-21 -24/-24/-24 -20/-20/-20
f -25/-25/-25 -19/-19/-19 -23/-23/-23
f -20/-20/-20 -23/-23/-23 -18/-18/-18
f -19/-19/-19 -18/-18/-18 -23/-23/-23
f -22/-22/-22 -21/-21/-21 -17/-17/-17
f -20/-20/-20 -16/-16/-16 -21/-21/-21
f -17/-17/-17 -21/-21/-21 -16/-16/-16
f -16/-16/-16 -20/-20/-20 -15/-15/-15
f -18/-18/-18 -15/-15/-15 -20/-20/-20
f -15/-15/-15 -18/-18/-18 -14/-14/-14
f -13/-13/-13 -14/-14/-14 -18/-18/-18
f -19/-19/-19 -13/-13/-13 -18/-18/-18
f -16/-16/-16 -15/-15/-15 -12/-12/-12
f -14/-14/-14 -12/-12/-12 -15/-15/-15
f -16/-16/-16 -12/-12/-12 -17/-17/-17
f -12/-12/-12 -14/-14/-14 -13/-13/-13
f -19/-19/-19 -11/-11/-11 -13/-13/-13
f -12/-12/-12 -13/-13/-13 -11/-11/-11
f -12/-12/-12 -10/-10/-10 -17/-17/-17
f -22/-22/-22 -17/-17/-17 -10/-10/-10
f -11/-11/-11 -9/-9/-9 -12/-12/-12
f -10/-10/-10 -12/-12/-12 -9/-9/-9
f -19/-19/-19 -8/-8/-8 -11/-11/-11
f -9/-9/-9 -11/-11/-11 -8/-8/-8
f -19/-19/-19 -25/-25/-25 -8/-8/-8
f -27/-27/-27 -8/-8/-8 -25/-25/-25
f -8/-8/-8 -7/-7/-7 -9/-9/-9
f -10/-10/-10 -9/-9/-9 -7/-7/-7
f -27/-27/-27 -7/-7/-7 -8/-8/-8
f -7/-7/-7 -6/-6/-6 -10/-10/-10
f -22/-22/-22 -10/-10/-10 -6/-6/-6
f -26/-26/-26 -22/-22/-22 -6/-6/-6
f -6/-6/-6 -7/-7/-7 -5/-5/-5
f -27/-27/-27 -5/-5/-5 -7/-7/-7
f -5/-5/-5 -27/-27/-27 -32/-32/-32
f -5/-5/-5 -4/-4/-4 -6/-6/-6
f -26/-26/-26 -6/-6/-6 -4/-4/-4
f -30/-30/-30 -26/-26/-26 -4/-4/-4
f -4/-4/-4 -5/-5/-5 -3/-3/-3
f -32/-32/-32 -3/-3/-3 -5/-5/-5
f -3/-3/-3 -32/-32/-32 -37/-37/-37
f -3/-3/-3 -2/-2/-2 -4/-4/-4
f -30/-30/-30 -4/-4/-4 -2/-2/-2
f -30/-30/-30 -2/-2/-2 -44/-44/-44
f -49/-49/-49 -44/-44/-44 -2/-2/-2
f -37/-37/-37 -1/-1/-1 -3/-3/-3
f -2/-2/-2 -3/-3/-3 -1/-1/-1
f -1/-1/-1 -49/-49/-49 -2/-2/-2
f -37/-37/-37 -45/-45/-45 -1/-1/-1
f -53/-53/-53 -1/-1/-1 -45/-45/-45
f -1/-1/-1 -53/-53/-53 -49/-49/-49

